<svg width="640" height="640" viewBox="0 0 640 640" fill="none" xmlns="http://www.w3.org/2000/svg">
<rect x="271.139" y="206.149" width="97.4999" height="96.1878" fill="#103E86"/>
<path d="M271.515 398V206L79.5151 398H271.515Z" fill="#6DBAF5"/>
<path d="M367.515 398V206L559.515 398H367.515Z" fill="#4DA4FF"/>
<path d="M318.974 109.999L416.543 109.999L318.974 208.325L318.974 109.999Z" fill="#5A9CEB"/>
<path d="M319.021 208.326L319.021 110L221.451 208.326L319.021 208.326Z" fill="#3381E1"/>
<path fill-rule="evenodd" clip-rule="evenodd" d="M221.462 208.324L221.462 208.326L123.892 208.326L221.46 110.002L221.46 110L319.03 110L221.462 208.324Z" fill="#285BAD"/>
<path d="M416.543 110L514.195 208.409H318.892L416.543 110Z" fill="#8FC3FF"/>
<path d="M437.374 476.733V485.792H414.681V476.733H437.374ZM442.884 450.117V531.18H431.771V450.117H442.884ZM372.188 506.431L387.784 484.765C389.59 482.212 390.773 480.189 391.333 478.695C391.893 477.138 392.173 475.333 392.173 473.278V455.534H402.54V473.278C402.54 476.329 402.073 479.224 401.139 481.963C400.205 484.64 398.555 487.629 396.189 490.929L380.593 512.595L372.188 506.431ZM414.681 512.595L399.084 490.929C396.718 487.629 395.069 484.64 394.135 481.963C393.201 479.224 392.734 476.329 392.734 473.278V455.534H403.1V473.278C403.1 475.333 403.38 477.138 403.941 478.695C404.501 480.189 405.684 482.212 407.489 484.765L423.086 506.431L414.681 512.595Z" fill="black"/>
<path d="M340.832 450.117V531.18H329.719V450.117H340.832ZM331.026 478.881V488.034H316.457V478.881H331.026ZM275.085 508.019V457.402H286.386V508.019H275.085ZM316.737 510.447H275.085V501.202H316.737V510.447ZM314.683 466.647H279.288V457.402H314.683V466.647ZM312.442 488.314H279.288V478.975H312.442V488.314Z" fill="black"/>
<path d="M193.81 479.162H221.267V465.994H193.624V457.028H232.38V488.127H205.017V508.766H193.81V479.162ZM236.957 512.035H193.81V502.789H236.957V512.035ZM235.462 478.975H252.553V488.034H235.462V478.975ZM248.817 450.117H260.024V531.18H248.817V450.117Z" fill="black"/>
<path d="M175.666 453.014V461.419H119.165V453.014H175.666ZM175.666 472.532V480.937H119.165V472.532H175.666ZM138.684 456.282V477.949H127.384V456.282H138.684ZM167.541 456.282V477.949H156.335V456.282H167.541ZM185.286 485.7V494.479H109.733V485.7H185.286ZM174.452 499.522V520.068H131.306V528.099H120.193V512.41H163.339V507.74H120.006V499.522H174.452ZM176.787 524.924V533.142H120.193V524.924H176.787Z" fill="black"/>
<path fill-rule="evenodd" clip-rule="evenodd" d="M496.49 444.693H486.553V448.64C483.887 448.974 481.419 449.591 479.147 450.492C475.598 451.924 472.827 453.948 470.835 456.563C468.843 459.115 467.847 462.041 467.847 465.341C467.847 468.517 468.843 471.381 470.835 473.933C472.827 476.424 475.598 478.385 479.147 479.817C482.758 481.186 486.836 481.871 491.381 481.871C496.051 481.871 500.191 481.186 503.802 479.817C507.413 478.385 510.215 476.424 512.207 473.933C514.262 471.381 515.288 468.517 515.288 465.341C515.288 462.041 514.262 459.115 512.207 456.563C510.215 453.948 507.382 451.924 503.709 450.492C501.48 449.609 499.074 448.998 496.49 448.659V444.693ZM500.813 470.758C498.448 472.128 495.365 472.813 491.568 472.813C487.708 472.813 484.594 472.128 482.229 470.758C479.862 469.388 478.68 467.552 478.68 465.248C478.68 462.944 479.862 461.076 482.229 459.645C484.594 458.213 487.677 457.496 491.474 457.496C494.027 457.496 496.268 457.839 498.198 458.524C500.19 459.146 501.716 460.049 502.775 461.232C503.895 462.415 504.455 463.754 504.455 465.248C504.455 467.552 503.241 469.388 500.813 470.758Z" fill="#296DD9"/>
<path d="M520.332 524.737H475.785V520.068H517.903V499.429H497.077V493.638H529.297V484.766H453.745V493.638H485.778V499.429H464.484V507.834H506.884V512.223H464.671V533.143H520.332V524.737Z" fill="black"/>
</svg>
